subject01_walk1_RRA_states
nRows=6
nColumns=47

# SIMM Motion File Header:
name subject01_walk1_RRA_states
datacolumns 47
datarows 6
otherdata 1
range 0.86900000000000033000 0.87150000000000027000
endheader
time	pelvis_tx	pelvis_ty	pelvis_tz	pelvis_tilt	pelvis_list	pelvis_rotation	hip_flexion_r	hip_adduction_r	hip_rotation_r	knee_angle_r	ankle_angle_r	subtalar_angle_r	mtp_angle_r	hip_flexion_l	hip_adduction_l	hip_rotation_l	knee_angle_l	ankle_angle_l	subtalar_angle_l	mtp_angle_l	lumbar_extension	lumbar_bending	lumbar_rotation	pelvis_tx_u	pelvis_ty_u	pelvis_tz_u	pelvis_tilt_u	pelvis_list_u	pelvis_rotation_u	hip_flexion_r_u	hip_adduction_r_u	hip_rotation_r_u	knee_angle_r_u	ankle_angle_r_u	subtalar_angle_r_u	mtp_angle_r_u	hip_flexion_l_u	hip_adduction_l_u	hip_rotation_l_u	knee_angle_l_u	ankle_angle_l_u	subtalar_angle_l_u	mtp_angle_l_u	lumbar_extension_u	lumbar_bending_u	lumbar_rotation_u
      0.86900000000000033000	      0.61284557208913415000	      1.01887406760627240000	      0.02954994611587838700	      4.79059101957962770000	     -1.51787720122337320000	      3.22652721376270210000	     10.24157049455813400000	      1.90672177674101630000	     -7.03287931131965930000	    -20.65888813951026400000	      5.42134046540584700000	     -0.00251145312573705990	      0.03908027155431435800	      5.07727854083159170000	     -5.94831251931398870000	     -3.19890197241484710000	    -66.78241370891707600000	     -5.28948060378727460000	      0.00472384182096017600	      0.02951286638838675200	    -15.23609974080358000000	      4.73274034446891620000	     -3.74694745875164650000	     -0.02957161805407700100	      0.18629424678471343000	      0.19730752382958336000	      5.20817570164522530000	     -3.15666193832511820000	    -10.90171292949604300000	   -109.19157752094164000000	     25.91102967513580800000	     12.38709433108096500000	     75.50091486564613800000	     21.23799680531209700000	      0.45799219071866010000	     -0.68475117117327988000	    145.19153173342940000000	    -25.98067460944051600000	    -37.49091015581775800000	   -114.24652230166103000000	     63.19908814563732600000	     -0.02941760792620511100	      0.00873233988458707760	     -4.24064676457167520000	     -5.48079796226591660000	     37.71906613873939300000
      0.86950000000000027000	      0.61283070812935059000	      1.01896720474805980000	      0.02964848054848799900	      4.79319619696886260000	     -1.51938911782655190000	      3.22104268489775960000	     10.18695517565417000000	      1.91959698177604960000	     -7.02662194815750580000	    -20.62107938121490800000	      5.43191882102564620000	     -0.00228099008918733950	      0.03873642207812713600	      5.14977116972944240000	     -5.96114168495411350000	     -3.21752949826458810000	    -66.83912506335040900000	     -5.25765388851311850000	      0.00470906515567448910	      0.02951683243622544400	    -15.23823025660572000000	      4.72992224628683200000	     -3.72808032141713670000	     -0.02988421733136681700	      0.18625291769211921000	      0.19682961146514030000	      5.21245025451280950000	     -2.89104467238868560000	    -11.03648887709802700000	   -109.26940307214910000000	     25.58969204951523900000	     12.64239849671937500000	     75.73351062934916900000	     21.07588949018290900000	      0.46374723232140108000	     -0.69032715099753250000	    144.77924376080949000000	    -25.33563880855070500000	    -37.01890808837407600000	   -112.59943851128700000000	     64.10525387497931100000	     -0.02968304692762260100	      0.00712563227520755620	     -4.28135362731017200000	     -5.79143061168724400000	     37.74941392629816800000
      0.87000000000000033000	      0.61281568786718610000	      1.01906031912146870000	      0.02974677513838670100	      4.79580338343556980000	     -1.52076829169130880000	      3.21549063421018300000	     10.13230139796970900000	      1.93231137676879090000	     -7.02023685098960030000	    -20.58315526196606600000	      5.44241702685256710000	     -0.00204773832384955170	      0.03838992538797755800	      5.22205804741728310000	     -5.97364781678062240000	     -3.23592059672022850000	    -66.89501368846178800000	     -5.22537787806760700000	      0.00469415987999877770	      0.02951999441388642900	    -15.24038102952748600000	      4.72694908332325790000	     -3.70919810846959750000	     -0.03019684237066315800	      0.18620317248350651000	      0.19634816305242631000	      5.21620665446551610000	     -2.62570064607135610000	    -11.17180766353050500000	   -109.34539227242198000000	     25.26779920074466200000	     12.89807056958704500000	     75.96231532337252200000	     20.91778822415463800000	      0.46936035683743937000	     -0.69596950962788251000	    144.36853289378664000000	    -24.68855323793738800000	    -36.54520264046696800000	   -110.95560270681894000000	     64.99624929260123500000	     -0.02994262386700293300	      0.00553338697102923660	     -4.32167106019119450000	     -6.10104781618888390000	     37.77937827530777800000
      0.87050000000000027000	      0.61280051127253787000	      1.01915340652178070000	      0.02984482814022339200	      4.79841231694359930000	     -1.52201487494274270000	      3.20987078714392380000	     10.07761009708687400000	      1.94486470537342600000	     -7.01372381927752290000	    -20.54511771904075700000	      5.45283734091993910000	     -0.00181180145324281740	      0.03804032139888093700	      5.29413997108019880000	     -5.98582992087571150000	     -3.25407443381148730000	    -66.95008121499743900000	     -5.19266017321217180000	      0.00467912559163167350	      0.02952236788577980100	    -15.24255186299323800000	      4.72382137736530350000	     -3.69030100396444860000	     -0.03050955217671136000	      0.18614503361108337000	      0.19586328442813525000	      5.21944320656012730000	     -2.36069394923341220000	    -11.30766577924645200000	   -109.41950171049024000000	     24.94544971607968300000	     13.15409011987647100000	     76.18720842467527600000	     20.76405291983825700000	      0.47399783543913182000	     -0.70235377871633353000	    143.95943293975122000000	    -24.03956207684926800000	    -36.06989390865805200000	   -109.31506231869615000000	     65.87203934995065400000	     -0.03018463185983232000	      0.00395365664197919710	     -4.36160044447473450000	     -6.40959295591303400000	     37.80897613026543500000
      0.87100000000000033000	      0.61278517829827894000	      1.01924646275415840000	      0.02994263785453726800	      4.80102274082898010000	     -1.52312904358084130000	      3.20418288413435230000	     10.02288220430294200000	      1.95725674997660960000	     -7.00708271654341170000	    -20.50696868840240600000	      5.46318174804313640000	     -0.00157377453011567160	      0.03768755717104849800	      5.36601775279693700000	     -5.99768707300092530000	     -3.27199023381180830000	    -67.00432930640415900000	     -5.15950838004614630000	      0.00466397630943443400	      0.02952395043449692100	    -15.24474256568135600000	      4.72053967014690650000	     -3.67138919796215870000	     -0.03082236055920385300	      0.18607848820471254000	      0.19537499393087179000	      5.22216510126107190000	     -2.09603346718114380000	    -11.44402854246155600000	   -109.49176525181637000000	     24.62263823418308200000	     13.41037396684653900000	     76.40829949398730000000	     20.61430483244628300000	      0.47848763906816494000	     -0.70878225966068131000	    143.55196780018329000000	    -23.38873417866695800000	    -35.59304371441110200000	   -107.67785745530537000000	     66.73258010088653700000	     -0.03042101394291176600	      0.00238821113510781760	     -4.40114407588723560000	     -6.71706066311651460000	     37.83817878703906200000
      0.87150000000000027000	      0.61276968889127326000	      1.01933948358754870000	      0.03004020258315198400	      4.80363439614180000000	     -1.52411097655086940000	      3.19842667525808100000	      9.96811864675519570000	      1.96948728312772770000	     -7.00031340636856660000	    -20.46871007273514900000	      5.47345236892315510000	     -0.00133348239935955000	      0.03733142018518834100	      5.43769221674588010000	     -6.00921837304511540000	     -3.28966723714723890000	    -67.05775963532261100000	     -5.12593013924080760000	      0.00464870743614243830	      0.02952475813474099800	    -15.24695294287398700000	      4.71710450565912430000	     -3.65246288845550640000	     -0.03113529144098844600	      0.18600340711485303000	      0.19488339522785536000	      5.22437175138401070000	     -1.83178041355183850000	    -11.58089024354521100000	   -109.56214153960558000000	     24.29946094468306600000	     13.66688992785778600000	     76.62547847916192700000	     20.46887246126502500000	      0.48202249428972033000	     -0.71588040422983990000	    143.14617009337167000000	    -22.73621263672645300000	    -35.11475059591801100000	   -106.04403160229434000000	     67.57784269254858600000	     -0.03064101328053006300	      0.00083514377339483580	     -4.44030248386025140000	     -7.02339586821301330000	     37.86700032656366900000
